<mxfile host="Electron" modified="2023-06-14T00:54:50.349Z" agent="Mozilla/5.0 (Windows NT 10.0; Win64; x64) AppleWebKit/537.36 (KHTML, like Gecko) draw.io/21.3.7 Chrome/112.0.5615.204 Electron/24.5.0 Safari/537.36" etag="6mjJOfpickxyCEtSgjHh" version="21.3.7" type="device">
  <diagram name="Página-1" id="bSeLhlfMRNUz2VW1u0Kk">
    <mxGraphModel dx="2329" dy="1832" grid="1" gridSize="10" guides="1" tooltips="1" connect="1" arrows="1" fold="1" page="1" pageScale="1" pageWidth="827" pageHeight="1169" math="0" shadow="0">
      <root>
        <mxCell id="0" />
        <mxCell id="1" parent="0" />
        <mxCell id="ToS3UBVZPTVG137705p_-1" value="&lt;div&gt;⦁&lt;span style=&quot;white-space: pre;&quot;&gt;&amp;nbsp;&amp;nbsp;&amp;nbsp;&amp;nbsp;&lt;/span&gt;Altillo&lt;/div&gt;&lt;div&gt;⦁&lt;span style=&quot;&quot;&gt;&lt;span style=&quot;white-space: pre;&quot;&gt;&amp;nbsp;&amp;nbsp;&amp;nbsp;&amp;nbsp;&lt;/span&gt;&lt;/span&gt;Bodega&lt;/div&gt;&lt;div&gt;⦁&lt;span style=&quot;&quot;&gt;&lt;span style=&quot;white-space: pre;&quot;&gt;&amp;nbsp;&amp;nbsp;&amp;nbsp;&amp;nbsp;&lt;/span&gt;&lt;/span&gt;Cochera&lt;/div&gt;&lt;div&gt;&lt;span style=&quot;background-color: initial;&quot;&gt;⦁&lt;/span&gt;&lt;span style=&quot;background-color: initial;&quot;&gt;&lt;span style=&quot;white-space: pre;&quot;&gt;&amp;nbsp;&amp;nbsp;&amp;nbsp;&amp;nbsp;&lt;/span&gt;&lt;/span&gt;&lt;span style=&quot;background-color: initial;&quot;&gt;Despensa&lt;/span&gt;&lt;br&gt;&lt;/div&gt;&lt;div&gt;&lt;span style=&quot;background-color: initial;&quot;&gt;⦁&lt;/span&gt;&lt;span style=&quot;background-color: initial;&quot;&gt;&lt;span style=&quot;white-space: pre;&quot;&gt;&amp;nbsp;&amp;nbsp;&amp;nbsp;&amp;nbsp;&lt;/span&gt;&lt;/span&gt;&lt;span style=&quot;background-color: initial;&quot;&gt;Gimnasio&lt;/span&gt;&lt;br&gt;&lt;/div&gt;&lt;div&gt;⦁&lt;span style=&quot;&quot;&gt;&lt;span style=&quot;white-space: pre;&quot;&gt;&amp;nbsp;&amp;nbsp;&amp;nbsp;&amp;nbsp;&lt;/span&gt;&lt;/span&gt;Invernadero&lt;/div&gt;&lt;div&gt;⦁&lt;span style=&quot;&quot;&gt;&lt;span style=&quot;white-space: pre;&quot;&gt;&amp;nbsp;&amp;nbsp;&amp;nbsp;&amp;nbsp;&lt;/span&gt;&lt;/span&gt;Lavadero&lt;/div&gt;&lt;div&gt;⦁&lt;span style=&quot;&quot;&gt;&lt;span style=&quot;white-space: pre;&quot;&gt;&amp;nbsp;&amp;nbsp;&amp;nbsp;&amp;nbsp;&lt;/span&gt;&lt;/span&gt;Natatorio&lt;/div&gt;&lt;div&gt;⦁&lt;span style=&quot;&quot;&gt;&lt;span style=&quot;white-space: pre;&quot;&gt;&amp;nbsp;&amp;nbsp;&amp;nbsp;&amp;nbsp;&lt;/span&gt;&lt;/span&gt;Sala de Juegos&lt;/div&gt;&lt;div&gt;&lt;span style=&quot;background-color: initial;&quot;&gt;⦁&lt;/span&gt;&lt;span style=&quot;background-color: initial;&quot;&gt;&lt;span style=&quot;white-space: pre;&quot;&gt;&amp;nbsp;&amp;nbsp;&amp;nbsp;&amp;nbsp;&lt;/span&gt;&lt;/span&gt;&lt;span style=&quot;background-color: initial;&quot;&gt;Sótano&lt;/span&gt;&lt;br&gt;&lt;/div&gt;&lt;div&gt;&lt;br&gt;&lt;/div&gt;" style="text;html=1;align=center;verticalAlign=middle;resizable=0;points=[];autosize=1;strokeColor=none;fillColor=none;" vertex="1" parent="1">
          <mxGeometry x="-370" y="110" width="120" height="170" as="geometry" />
        </mxCell>
        <mxCell id="ToS3UBVZPTVG137705p_-6" style="edgeStyle=orthogonalEdgeStyle;rounded=0;orthogonalLoop=1;jettySize=auto;html=1;entryX=0.5;entryY=1;entryDx=0;entryDy=0;endArrow=none;endFill=0;" edge="1" parent="1" source="ToS3UBVZPTVG137705p_-2" target="ToS3UBVZPTVG137705p_-5">
          <mxGeometry relative="1" as="geometry" />
        </mxCell>
        <mxCell id="ToS3UBVZPTVG137705p_-2" value="1" style="ellipse;whiteSpace=wrap;html=1;aspect=fixed;fillColor=#1ba1e2;fontColor=#ffffff;strokeColor=#006EAF;" vertex="1" parent="1">
          <mxGeometry x="460" y="410" width="50" height="50" as="geometry" />
        </mxCell>
        <mxCell id="ToS3UBVZPTVG137705p_-4" value="&lt;div style=&quot;text-align: left;&quot;&gt;Habitación: código, nombre, planta, metros cuadrados, tiene salida al exterior&lt;/div&gt;&lt;div style=&quot;text-align: left;&quot;&gt;H;1;Recibidor;0;1;true&lt;/div&gt;&lt;div style=&quot;text-align: left;&quot;&gt;H;2;Pasillo;0;2;false&lt;br&gt;&lt;/div&gt;&lt;div style=&quot;text-align: left;&quot;&gt;&lt;div&gt;H;3;Sala de Estar;0;6;false&lt;br&gt;&lt;/div&gt;&lt;div&gt;H;4;Comedor;0;6;false&lt;br&gt;&lt;/div&gt;&lt;div&gt;H;5;Cocina;0;5;false&lt;br&gt;&lt;/div&gt;&lt;div&gt;H;6;Quincho;0;10;false&lt;br&gt;&lt;/div&gt;&lt;div&gt;H;7;Escalera;0;3;false&lt;br style=&quot;text-align: center;&quot;&gt;&lt;/div&gt;&lt;div&gt;H;8;Biblioteca;0;8;false&lt;br&gt;&lt;/div&gt;&lt;div&gt;H;9;Dormitorio Principal;1;6;false&lt;br&gt;&lt;/div&gt;&lt;div&gt;H;10;Dormitorio de Huespedes;1;4;false&lt;br&gt;&lt;/div&gt;&lt;div&gt;H;11;Baño;1;2;false&lt;br&gt;&lt;/div&gt;&lt;div&gt;H;12;Despensa;0;3;false&lt;br&gt;&lt;/div&gt;&lt;div&gt;H;13;Deposito;-1;5;false&lt;br&gt;&lt;/div&gt;&lt;div&gt;&lt;div&gt;H;14;Escritorio;0;4;false&lt;br&gt;&lt;/div&gt;&lt;div&gt;H;15;Sala de Musica;0;6;false&lt;/div&gt;&lt;/div&gt;&lt;div&gt;H;16;Sotano;-1;5;false&lt;br&gt;&lt;/div&gt;&lt;div&gt;H;17;Lavadero;1;3;false&lt;br&gt;&lt;/div&gt;&lt;div&gt;H;18;Altillo;1;2;false&lt;br&gt;&lt;/div&gt;&lt;div&gt;H;19;Sala de Juegos;1;4;false&lt;br&gt;&lt;/div&gt;&lt;div&gt;H;20;Cochera;0;4;true&lt;br&gt;&lt;/div&gt;&lt;/div&gt;&lt;div&gt;&lt;br&gt;&lt;/div&gt;" style="text;html=1;align=center;verticalAlign=middle;resizable=0;points=[];autosize=1;strokeColor=none;fillColor=none;" vertex="1" parent="1">
          <mxGeometry x="-390" y="290" width="440" height="330" as="geometry" />
        </mxCell>
        <mxCell id="ToS3UBVZPTVG137705p_-9" style="edgeStyle=orthogonalEdgeStyle;rounded=0;orthogonalLoop=1;jettySize=auto;html=1;entryX=0;entryY=0.5;entryDx=0;entryDy=0;endArrow=none;endFill=0;" edge="1" parent="1" source="ToS3UBVZPTVG137705p_-5" target="ToS3UBVZPTVG137705p_-8">
          <mxGeometry relative="1" as="geometry" />
        </mxCell>
        <mxCell id="ToS3UBVZPTVG137705p_-20" value="" style="edgeStyle=orthogonalEdgeStyle;rounded=0;orthogonalLoop=1;jettySize=auto;html=1;endArrow=none;endFill=0;" edge="1" parent="1" source="ToS3UBVZPTVG137705p_-5" target="ToS3UBVZPTVG137705p_-19">
          <mxGeometry relative="1" as="geometry" />
        </mxCell>
        <mxCell id="ToS3UBVZPTVG137705p_-5" value="2" style="ellipse;whiteSpace=wrap;html=1;aspect=fixed;" vertex="1" parent="1">
          <mxGeometry x="460" y="280" width="50" height="50" as="geometry" />
        </mxCell>
        <mxCell id="ToS3UBVZPTVG137705p_-7" value="5" style="text;html=1;align=center;verticalAlign=middle;resizable=0;points=[];autosize=1;strokeColor=none;fillColor=none;rotation=-90;" vertex="1" parent="1">
          <mxGeometry x="460" y="355" width="30" height="30" as="geometry" />
        </mxCell>
        <mxCell id="ToS3UBVZPTVG137705p_-22" style="edgeStyle=orthogonalEdgeStyle;rounded=0;orthogonalLoop=1;jettySize=auto;html=1;endArrow=none;endFill=0;" edge="1" parent="1" source="ToS3UBVZPTVG137705p_-8">
          <mxGeometry relative="1" as="geometry">
            <mxPoint x="710" y="305" as="targetPoint" />
          </mxGeometry>
        </mxCell>
        <mxCell id="ToS3UBVZPTVG137705p_-66" style="rounded=0;orthogonalLoop=1;jettySize=auto;html=1;exitX=1;exitY=1;exitDx=0;exitDy=0;entryX=0;entryY=0;entryDx=0;entryDy=0;endArrow=none;endFill=0;" edge="1" parent="1" source="ToS3UBVZPTVG137705p_-8" target="ToS3UBVZPTVG137705p_-41">
          <mxGeometry relative="1" as="geometry" />
        </mxCell>
        <mxCell id="ToS3UBVZPTVG137705p_-8" value="3" style="ellipse;whiteSpace=wrap;html=1;aspect=fixed;" vertex="1" parent="1">
          <mxGeometry x="590" y="280" width="50" height="50" as="geometry" />
        </mxCell>
        <mxCell id="ToS3UBVZPTVG137705p_-10" value="10" style="text;html=1;align=center;verticalAlign=middle;resizable=0;points=[];autosize=1;strokeColor=none;fillColor=none;rotation=0;" vertex="1" parent="1">
          <mxGeometry x="535" y="280" width="40" height="30" as="geometry" />
        </mxCell>
        <mxCell id="ToS3UBVZPTVG137705p_-12" style="edgeStyle=orthogonalEdgeStyle;rounded=0;orthogonalLoop=1;jettySize=auto;html=1;entryX=0;entryY=0.5;entryDx=0;entryDy=0;endArrow=none;endFill=0;" edge="1" parent="1" source="ToS3UBVZPTVG137705p_-11" target="ToS3UBVZPTVG137705p_-5">
          <mxGeometry relative="1" as="geometry" />
        </mxCell>
        <mxCell id="ToS3UBVZPTVG137705p_-15" value="" style="edgeStyle=orthogonalEdgeStyle;rounded=0;orthogonalLoop=1;jettySize=auto;html=1;endArrow=none;endFill=0;" edge="1" parent="1" source="ToS3UBVZPTVG137705p_-11" target="ToS3UBVZPTVG137705p_-14">
          <mxGeometry relative="1" as="geometry" />
        </mxCell>
        <mxCell id="ToS3UBVZPTVG137705p_-11" value="4" style="ellipse;whiteSpace=wrap;html=1;aspect=fixed;" vertex="1" parent="1">
          <mxGeometry x="330" y="280" width="50" height="50" as="geometry" />
        </mxCell>
        <mxCell id="ToS3UBVZPTVG137705p_-13" value="15" style="text;html=1;align=center;verticalAlign=middle;resizable=0;points=[];autosize=1;strokeColor=none;fillColor=none;rotation=0;" vertex="1" parent="1">
          <mxGeometry x="394" y="280" width="40" height="30" as="geometry" />
        </mxCell>
        <mxCell id="ToS3UBVZPTVG137705p_-17" value="" style="edgeStyle=orthogonalEdgeStyle;rounded=0;orthogonalLoop=1;jettySize=auto;html=1;endArrow=none;endFill=0;" edge="1" parent="1" source="ToS3UBVZPTVG137705p_-14" target="ToS3UBVZPTVG137705p_-16">
          <mxGeometry relative="1" as="geometry" />
        </mxCell>
        <mxCell id="ToS3UBVZPTVG137705p_-36" style="edgeStyle=orthogonalEdgeStyle;rounded=0;orthogonalLoop=1;jettySize=auto;html=1;entryX=0.5;entryY=1;entryDx=0;entryDy=0;endArrow=none;endFill=0;" edge="1" parent="1" source="ToS3UBVZPTVG137705p_-14" target="ToS3UBVZPTVG137705p_-35">
          <mxGeometry relative="1" as="geometry" />
        </mxCell>
        <mxCell id="ToS3UBVZPTVG137705p_-14" value="5" style="ellipse;whiteSpace=wrap;html=1;aspect=fixed;" vertex="1" parent="1">
          <mxGeometry x="210" y="280" width="50" height="50" as="geometry" />
        </mxCell>
        <mxCell id="ToS3UBVZPTVG137705p_-61" style="rounded=0;orthogonalLoop=1;jettySize=auto;html=1;exitX=1;exitY=0;exitDx=0;exitDy=0;entryX=0;entryY=1;entryDx=0;entryDy=0;endArrow=none;endFill=0;" edge="1" parent="1" source="ToS3UBVZPTVG137705p_-16" target="ToS3UBVZPTVG137705p_-35">
          <mxGeometry relative="1" as="geometry" />
        </mxCell>
        <mxCell id="ToS3UBVZPTVG137705p_-69" value="" style="edgeStyle=orthogonalEdgeStyle;rounded=0;orthogonalLoop=1;jettySize=auto;html=1;endArrow=none;endFill=0;" edge="1" parent="1" source="ToS3UBVZPTVG137705p_-16" target="ToS3UBVZPTVG137705p_-68">
          <mxGeometry relative="1" as="geometry" />
        </mxCell>
        <mxCell id="ToS3UBVZPTVG137705p_-16" value="6" style="ellipse;whiteSpace=wrap;html=1;aspect=fixed;" vertex="1" parent="1">
          <mxGeometry x="90" y="280" width="50" height="50" as="geometry" />
        </mxCell>
        <mxCell id="ToS3UBVZPTVG137705p_-28" value="" style="edgeStyle=orthogonalEdgeStyle;rounded=0;orthogonalLoop=1;jettySize=auto;html=1;endArrow=none;endFill=0;" edge="1" parent="1" source="ToS3UBVZPTVG137705p_-19" target="ToS3UBVZPTVG137705p_-27">
          <mxGeometry relative="1" as="geometry" />
        </mxCell>
        <mxCell id="ToS3UBVZPTVG137705p_-31" value="" style="edgeStyle=orthogonalEdgeStyle;rounded=0;orthogonalLoop=1;jettySize=auto;html=1;endArrow=none;endFill=0;" edge="1" parent="1" source="ToS3UBVZPTVG137705p_-19" target="ToS3UBVZPTVG137705p_-30">
          <mxGeometry relative="1" as="geometry" />
        </mxCell>
        <mxCell id="ToS3UBVZPTVG137705p_-56" style="rounded=0;orthogonalLoop=1;jettySize=auto;html=1;exitX=1;exitY=0;exitDx=0;exitDy=0;entryX=0;entryY=1;entryDx=0;entryDy=0;endArrow=none;endFill=0;" edge="1" parent="1" source="ToS3UBVZPTVG137705p_-19" target="ToS3UBVZPTVG137705p_-33">
          <mxGeometry relative="1" as="geometry" />
        </mxCell>
        <mxCell id="ToS3UBVZPTVG137705p_-59" value="" style="edgeStyle=orthogonalEdgeStyle;rounded=0;orthogonalLoop=1;jettySize=auto;html=1;endArrow=none;endFill=0;" edge="1" parent="1" source="ToS3UBVZPTVG137705p_-19" target="ToS3UBVZPTVG137705p_-58">
          <mxGeometry relative="1" as="geometry" />
        </mxCell>
        <mxCell id="ToS3UBVZPTVG137705p_-65" style="rounded=0;orthogonalLoop=1;jettySize=auto;html=1;exitX=0;exitY=0;exitDx=0;exitDy=0;entryX=1;entryY=1;entryDx=0;entryDy=0;endArrow=none;endFill=0;" edge="1" parent="1" source="ToS3UBVZPTVG137705p_-19" target="ToS3UBVZPTVG137705p_-63">
          <mxGeometry relative="1" as="geometry" />
        </mxCell>
        <mxCell id="ToS3UBVZPTVG137705p_-19" value="7" style="ellipse;whiteSpace=wrap;html=1;aspect=fixed;" vertex="1" parent="1">
          <mxGeometry x="460" y="150" width="50" height="50" as="geometry" />
        </mxCell>
        <mxCell id="ToS3UBVZPTVG137705p_-42" value="" style="edgeStyle=orthogonalEdgeStyle;rounded=0;orthogonalLoop=1;jettySize=auto;html=1;endArrow=none;endFill=0;" edge="1" parent="1" source="ToS3UBVZPTVG137705p_-23" target="ToS3UBVZPTVG137705p_-41">
          <mxGeometry relative="1" as="geometry" />
        </mxCell>
        <mxCell id="ToS3UBVZPTVG137705p_-50" value="" style="edgeStyle=orthogonalEdgeStyle;rounded=0;orthogonalLoop=1;jettySize=auto;html=1;endArrow=none;endFill=0;" edge="1" parent="1" source="ToS3UBVZPTVG137705p_-23" target="ToS3UBVZPTVG137705p_-49">
          <mxGeometry relative="1" as="geometry" />
        </mxCell>
        <mxCell id="ToS3UBVZPTVG137705p_-23" value="8" style="ellipse;whiteSpace=wrap;html=1;aspect=fixed;" vertex="1" parent="1">
          <mxGeometry x="710" y="280" width="50" height="50" as="geometry" />
        </mxCell>
        <mxCell id="ToS3UBVZPTVG137705p_-24" value="20" style="text;html=1;align=center;verticalAlign=middle;resizable=0;points=[];autosize=1;strokeColor=none;fillColor=none;rotation=-90;" vertex="1" parent="1">
          <mxGeometry x="455" y="230" width="40" height="30" as="geometry" />
        </mxCell>
        <mxCell id="ToS3UBVZPTVG137705p_-25" value="17" style="text;html=1;align=center;verticalAlign=middle;resizable=0;points=[];autosize=1;strokeColor=none;fillColor=none;rotation=0;" vertex="1" parent="1">
          <mxGeometry x="280" y="280" width="40" height="30" as="geometry" />
        </mxCell>
        <mxCell id="ToS3UBVZPTVG137705p_-34" value="" style="edgeStyle=orthogonalEdgeStyle;rounded=0;orthogonalLoop=1;jettySize=auto;html=1;endArrow=none;endFill=0;" edge="1" parent="1" source="ToS3UBVZPTVG137705p_-27" target="ToS3UBVZPTVG137705p_-33">
          <mxGeometry relative="1" as="geometry" />
        </mxCell>
        <mxCell id="ToS3UBVZPTVG137705p_-64" value="" style="edgeStyle=orthogonalEdgeStyle;rounded=0;orthogonalLoop=1;jettySize=auto;html=1;endArrow=none;endFill=0;" edge="1" parent="1" source="ToS3UBVZPTVG137705p_-27" target="ToS3UBVZPTVG137705p_-63">
          <mxGeometry relative="1" as="geometry" />
        </mxCell>
        <mxCell id="ToS3UBVZPTVG137705p_-27" value="9" style="ellipse;whiteSpace=wrap;html=1;aspect=fixed;fillColor=#60a917;fontColor=#ffffff;strokeColor=#2D7600;" vertex="1" parent="1">
          <mxGeometry x="460" y="40" width="50" height="50" as="geometry" />
        </mxCell>
        <mxCell id="ToS3UBVZPTVG137705p_-70" style="rounded=0;orthogonalLoop=1;jettySize=auto;html=1;exitX=1;exitY=1;exitDx=0;exitDy=0;entryX=0;entryY=0;entryDx=0;entryDy=0;endArrow=none;endFill=0;" edge="1" parent="1" source="ToS3UBVZPTVG137705p_-30" target="ToS3UBVZPTVG137705p_-23">
          <mxGeometry relative="1" as="geometry" />
        </mxCell>
        <mxCell id="ToS3UBVZPTVG137705p_-30" value="10" style="ellipse;whiteSpace=wrap;html=1;aspect=fixed;fillColor=#60a917;fontColor=#ffffff;strokeColor=#2D7600;" vertex="1" parent="1">
          <mxGeometry x="590" y="150" width="50" height="50" as="geometry" />
        </mxCell>
        <mxCell id="ToS3UBVZPTVG137705p_-51" style="edgeStyle=orthogonalEdgeStyle;rounded=0;orthogonalLoop=1;jettySize=auto;html=1;endArrow=none;endFill=0;" edge="1" parent="1" source="ToS3UBVZPTVG137705p_-33" target="ToS3UBVZPTVG137705p_-30">
          <mxGeometry relative="1" as="geometry" />
        </mxCell>
        <mxCell id="ToS3UBVZPTVG137705p_-54" value="" style="edgeStyle=orthogonalEdgeStyle;rounded=0;orthogonalLoop=1;jettySize=auto;html=1;endArrow=none;endFill=0;" edge="1" parent="1" source="ToS3UBVZPTVG137705p_-33" target="ToS3UBVZPTVG137705p_-53">
          <mxGeometry relative="1" as="geometry" />
        </mxCell>
        <mxCell id="ToS3UBVZPTVG137705p_-33" value="11" style="ellipse;whiteSpace=wrap;html=1;aspect=fixed;fillColor=#60a917;fontColor=#ffffff;strokeColor=#2D7600;" vertex="1" parent="1">
          <mxGeometry x="590" y="40" width="50" height="50" as="geometry" />
        </mxCell>
        <mxCell id="ToS3UBVZPTVG137705p_-39" value="" style="edgeStyle=orthogonalEdgeStyle;rounded=0;orthogonalLoop=1;jettySize=auto;html=1;endArrow=none;endFill=0;" edge="1" parent="1" source="ToS3UBVZPTVG137705p_-35" target="ToS3UBVZPTVG137705p_-38">
          <mxGeometry relative="1" as="geometry" />
        </mxCell>
        <mxCell id="ToS3UBVZPTVG137705p_-35" value="12" style="ellipse;whiteSpace=wrap;html=1;aspect=fixed;" vertex="1" parent="1">
          <mxGeometry x="210" y="150" width="50" height="50" as="geometry" />
        </mxCell>
        <mxCell id="ToS3UBVZPTVG137705p_-60" style="edgeStyle=orthogonalEdgeStyle;rounded=0;orthogonalLoop=1;jettySize=auto;html=1;entryX=1;entryY=0.5;entryDx=0;entryDy=0;curved=1;endArrow=none;endFill=0;exitX=0.5;exitY=0;exitDx=0;exitDy=0;" edge="1" parent="1" source="ToS3UBVZPTVG137705p_-38" target="ToS3UBVZPTVG137705p_-49">
          <mxGeometry relative="1" as="geometry">
            <Array as="points">
              <mxPoint x="115" y="-20" />
              <mxPoint x="780" y="-20" />
              <mxPoint x="780" y="175" />
            </Array>
          </mxGeometry>
        </mxCell>
        <mxCell id="ToS3UBVZPTVG137705p_-38" value="13" style="ellipse;whiteSpace=wrap;html=1;aspect=fixed;fillColor=#a20025;fontColor=#ffffff;strokeColor=#6F0000;" vertex="1" parent="1">
          <mxGeometry x="90" y="150" width="50" height="50" as="geometry" />
        </mxCell>
        <mxCell id="ToS3UBVZPTVG137705p_-41" value="14" style="ellipse;whiteSpace=wrap;html=1;aspect=fixed;" vertex="1" parent="1">
          <mxGeometry x="710" y="410" width="50" height="50" as="geometry" />
        </mxCell>
        <mxCell id="ToS3UBVZPTVG137705p_-46" value="" style="edgeStyle=orthogonalEdgeStyle;rounded=0;orthogonalLoop=1;jettySize=auto;html=1;endArrow=none;endFill=0;" edge="1" parent="1" source="ToS3UBVZPTVG137705p_-45" target="ToS3UBVZPTVG137705p_-41">
          <mxGeometry relative="1" as="geometry" />
        </mxCell>
        <mxCell id="ToS3UBVZPTVG137705p_-47" value="" style="edgeStyle=orthogonalEdgeStyle;rounded=0;orthogonalLoop=1;jettySize=auto;html=1;endArrow=none;endFill=0;" edge="1" parent="1" source="ToS3UBVZPTVG137705p_-45" target="ToS3UBVZPTVG137705p_-8">
          <mxGeometry relative="1" as="geometry" />
        </mxCell>
        <mxCell id="ToS3UBVZPTVG137705p_-45" value="15" style="ellipse;whiteSpace=wrap;html=1;aspect=fixed;" vertex="1" parent="1">
          <mxGeometry x="590" y="410" width="50" height="50" as="geometry" />
        </mxCell>
        <mxCell id="ToS3UBVZPTVG137705p_-49" value="16" style="ellipse;whiteSpace=wrap;html=1;aspect=fixed;fillColor=#a20025;fontColor=#ffffff;strokeColor=#6F0000;" vertex="1" parent="1">
          <mxGeometry x="710" y="150" width="50" height="50" as="geometry" />
        </mxCell>
        <mxCell id="ToS3UBVZPTVG137705p_-53" value="17" style="ellipse;whiteSpace=wrap;html=1;aspect=fixed;fillColor=#60a917;fontColor=#ffffff;strokeColor=#2D7600;" vertex="1" parent="1">
          <mxGeometry x="710" y="40" width="50" height="50" as="geometry" />
        </mxCell>
        <mxCell id="ToS3UBVZPTVG137705p_-58" value="18" style="ellipse;whiteSpace=wrap;html=1;aspect=fixed;fillColor=#60a917;fontColor=#ffffff;strokeColor=#2D7600;" vertex="1" parent="1">
          <mxGeometry x="344" y="150" width="50" height="50" as="geometry" />
        </mxCell>
        <mxCell id="ToS3UBVZPTVG137705p_-63" value="19" style="ellipse;whiteSpace=wrap;html=1;aspect=fixed;fillColor=#60a917;fontColor=#ffffff;strokeColor=#2D7600;" vertex="1" parent="1">
          <mxGeometry x="344" y="40" width="50" height="50" as="geometry" />
        </mxCell>
        <mxCell id="ToS3UBVZPTVG137705p_-68" value="20" style="ellipse;whiteSpace=wrap;html=1;aspect=fixed;fillColor=#1ba1e2;fontColor=#ffffff;strokeColor=#006EAF;" vertex="1" parent="1">
          <mxGeometry x="90" y="410" width="50" height="50" as="geometry" />
        </mxCell>
        <mxCell id="ToS3UBVZPTVG137705p_-71" value="24" style="text;html=1;align=center;verticalAlign=middle;resizable=0;points=[];autosize=1;strokeColor=none;fillColor=none;" vertex="1" parent="1">
          <mxGeometry x="160" y="280" width="40" height="30" as="geometry" />
        </mxCell>
        <mxCell id="ToS3UBVZPTVG137705p_-72" value="30" style="text;html=1;align=center;verticalAlign=middle;resizable=0;points=[];autosize=1;strokeColor=none;fillColor=none;rotation=90;" vertex="1" parent="1">
          <mxGeometry x="110" y="355" width="40" height="30" as="geometry" />
        </mxCell>
        <mxCell id="ToS3UBVZPTVG137705p_-73" value="20" style="text;html=1;align=center;verticalAlign=middle;resizable=0;points=[];autosize=1;strokeColor=none;fillColor=none;rotation=-50;" vertex="1" parent="1">
          <mxGeometry x="140" y="220" width="40" height="30" as="geometry" />
        </mxCell>
        <mxCell id="ToS3UBVZPTVG137705p_-74" value="14" style="text;html=1;align=center;verticalAlign=middle;resizable=0;points=[];autosize=1;strokeColor=none;fillColor=none;rotation=90;" vertex="1" parent="1">
          <mxGeometry x="610" y="355" width="40" height="30" as="geometry" />
        </mxCell>
        <mxCell id="ToS3UBVZPTVG137705p_-75" value="25" style="text;html=1;align=center;verticalAlign=middle;resizable=0;points=[];autosize=1;strokeColor=none;fillColor=none;rotation=0;" vertex="1" parent="1">
          <mxGeometry x="660" y="440" width="40" height="30" as="geometry" />
        </mxCell>
        <mxCell id="ToS3UBVZPTVG137705p_-76" value="40" style="text;html=1;align=center;verticalAlign=middle;resizable=0;points=[];autosize=1;strokeColor=none;fillColor=none;rotation=0;" vertex="1" parent="1">
          <mxGeometry x="160" y="150" width="40" height="30" as="geometry" />
        </mxCell>
        <mxCell id="ToS3UBVZPTVG137705p_-77" value="50" style="text;html=1;align=center;verticalAlign=middle;resizable=0;points=[];autosize=1;strokeColor=none;fillColor=none;rotation=0;" vertex="1" parent="1">
          <mxGeometry x="420" y="-50" width="40" height="30" as="geometry" />
        </mxCell>
        <mxCell id="ToS3UBVZPTVG137705p_-78" value="34" style="text;html=1;align=center;verticalAlign=middle;resizable=0;points=[];autosize=1;strokeColor=none;fillColor=none;rotation=90;" vertex="1" parent="1">
          <mxGeometry x="730" y="350" width="40" height="30" as="geometry" />
        </mxCell>
        <mxCell id="ToS3UBVZPTVG137705p_-79" value="30" style="text;html=1;align=center;verticalAlign=middle;resizable=0;points=[];autosize=1;strokeColor=none;fillColor=none;rotation=50;" vertex="1" parent="1">
          <mxGeometry x="660" y="340" width="40" height="30" as="geometry" />
        </mxCell>
        <mxCell id="ToS3UBVZPTVG137705p_-82" value="45" style="text;html=1;align=center;verticalAlign=middle;resizable=0;points=[];autosize=1;strokeColor=none;fillColor=none;rotation=0;" vertex="1" parent="1">
          <mxGeometry x="660" y="280" width="40" height="30" as="geometry" />
        </mxCell>
        <mxCell id="ToS3UBVZPTVG137705p_-83" value="19" style="text;html=1;align=center;verticalAlign=middle;resizable=0;points=[];autosize=1;strokeColor=none;fillColor=none;rotation=50;" vertex="1" parent="1">
          <mxGeometry x="670" y="220" width="40" height="30" as="geometry" />
        </mxCell>
        <mxCell id="ToS3UBVZPTVG137705p_-84" value="10" style="text;html=1;align=center;verticalAlign=middle;resizable=0;points=[];autosize=1;strokeColor=none;fillColor=none;rotation=90;" vertex="1" parent="1">
          <mxGeometry x="730" y="230" width="40" height="30" as="geometry" />
        </mxCell>
        <mxCell id="ToS3UBVZPTVG137705p_-85" value="13" style="text;html=1;align=center;verticalAlign=middle;resizable=0;points=[];autosize=1;strokeColor=none;fillColor=none;rotation=0;" vertex="1" parent="1">
          <mxGeometry x="400" y="150" width="40" height="30" as="geometry" />
        </mxCell>
        <mxCell id="ToS3UBVZPTVG137705p_-86" value="30" style="text;html=1;align=center;verticalAlign=middle;resizable=0;points=[];autosize=1;strokeColor=none;fillColor=none;rotation=0;" vertex="1" parent="1">
          <mxGeometry x="535" y="150" width="40" height="30" as="geometry" />
        </mxCell>
        <mxCell id="ToS3UBVZPTVG137705p_-87" value="15" style="text;html=1;align=center;verticalAlign=middle;resizable=0;points=[];autosize=1;strokeColor=none;fillColor=none;rotation=0;" vertex="1" parent="1">
          <mxGeometry x="530" y="40" width="40" height="30" as="geometry" />
        </mxCell>
        <mxCell id="ToS3UBVZPTVG137705p_-88" value="3" style="text;html=1;align=center;verticalAlign=middle;resizable=0;points=[];autosize=1;strokeColor=none;fillColor=none;rotation=0;" vertex="1" parent="1">
          <mxGeometry x="415" y="40" width="30" height="30" as="geometry" />
        </mxCell>
        <mxCell id="ToS3UBVZPTVG137705p_-89" value="20" style="text;html=1;align=center;verticalAlign=middle;resizable=0;points=[];autosize=1;strokeColor=none;fillColor=none;rotation=45;" vertex="1" parent="1">
          <mxGeometry x="415" y="100" width="40" height="30" as="geometry" />
        </mxCell>
        <mxCell id="ToS3UBVZPTVG137705p_-90" value="55" style="text;html=1;align=center;verticalAlign=middle;resizable=0;points=[];autosize=1;strokeColor=none;fillColor=none;rotation=-35;" vertex="1" parent="1">
          <mxGeometry x="520" y="90" width="40" height="30" as="geometry" />
        </mxCell>
        <mxCell id="ToS3UBVZPTVG137705p_-91" value="32" style="text;html=1;align=center;verticalAlign=middle;resizable=0;points=[];autosize=1;strokeColor=none;fillColor=none;rotation=0;" vertex="1" parent="1">
          <mxGeometry x="660" y="40" width="40" height="30" as="geometry" />
        </mxCell>
        <mxCell id="ToS3UBVZPTVG137705p_-92" value="19" style="text;html=1;align=center;verticalAlign=middle;resizable=0;points=[];autosize=1;strokeColor=none;fillColor=none;rotation=90;" vertex="1" parent="1">
          <mxGeometry x="610" y="100" width="40" height="30" as="geometry" />
        </mxCell>
      </root>
    </mxGraphModel>
  </diagram>
</mxfile>
